<svg version="1.0" xmlns="http://www.w3.org/2000/svg"
 width="1280.000000pt" height="1115.000000pt" viewBox="0 0 1280.000000 1115.000000"
 preserveAspectRatio="xMidYMid meet">
<g transform="translate(0.000000,1115.000000) scale(0.100000,-0.100000)"
fill="#000000" stroke="none">
<path d="M8470 11139 c-47 -5 -152 -16 -235 -24 -952 -101 -1842 -538 -2687
-1319 -81 -75 -144 -126 -156 -126 -12 0 -103 13 -204 29 -832 134 -1615 147
-2277 40 -1273 -206 -2211 -845 -2826 -1921 -36 -65 -71 -120 -76 -123 -12 -8
-12 -198 0 -210 5 -6 259 -791 565 -1745 306 -954 846 -2636 1199 -3737 l642
-2003 266 0 265 0 146 218 c179 265 282 396 447 565 419 432 891 713 1472 877
406 115 773 162 1274 163 528 1 896 -39 1592 -174 145 -28 269 -49 276 -46 7
3 51 65 97 138 210 335 321 482 494 654 136 134 234 214 391 317 369 243 805
383 1334 429 197 17 690 6 906 -20 335 -40 511 -73 1029 -192 213 -49 390 -89
392 -89 9 0 3 603 -6 620 -6 11 -564 1668 -1240 3682 -677 2015 -1235 3675
-1241 3689 -9 24 -29 32 -222 87 -329 95 -487 132 -747 172 -291 45 -696 68
-870 49z m438 -860 c258 -18 687 -91 719 -122 19 -18 2094 -6200 2084 -6210
-4 -4 -81 1 -172 12 -291 36 -438 44 -734 44 -372 0 -605 -21 -916 -84 -558
-112 -1060 -341 -1476 -675 -126 -101 -199 -170 -356 -333 -75 -78 -112 -110
-119 -103 -6 6 -199 635 -429 1399 -231 763 -656 2173 -946 3133 l-526 1745
79 73 c436 406 870 695 1325 882 471 194 970 275 1467 239z m-4483 -1344 c330
-29 777 -92 794 -111 5 -5 268 -868 584 -1919 317 -1050 734 -2433 927 -3072
192 -639 350 -1169 350 -1179 0 -15 -8 -16 -67 -10 -378 36 -949 42 -1258 13
-210 -20 -460 -56 -630 -91 -796 -163 -1490 -514 -2043 -1032 -62 -58 -117
-104 -124 -102 -12 4 -2047 6049 -2048 6083 0 23 118 201 216 325 100 127 354
374 484 471 486 364 1065 568 1790 629 69 6 148 12 175 14 111 8 691 -4 850
-19z"/>
</g>
</svg>